<?xml version="1.0" encoding="UTF-8"?>
<svg width="20px" height="25px" viewBox="0 0 20 25" version="1.1" xmlns="http://www.w3.org/2000/svg" xmlns:xlink="http://www.w3.org/1999/xlink">
    <!-- Generator: Sketch 47.1 (45422) - http://www.bohemiancoding.com/sketch -->
    <title>address-book</title>
    <desc>Created with Sketch.</desc>
    <defs></defs>
    <g id="Page-1" stroke="none" stroke-width="1" fill="none" fill-rule="evenodd">
        <g id="address-book" transform="translate(1.375000, 1.000000)" stroke="#403F45" fill="#403F45">
            <g id="Group-103" transform="translate(5.000000, 5.000000)" stroke-width="0.5">
                <path d="M8.4506365,0 L0.514000046,0 C0.230163566,0 0,0.242950839 0,0.542556516 L0,3.37285134 C0,3.67245702 0.230163566,3.91540785 0.514000046,3.91540785 L8.4506365,3.91540785 C8.73447298,3.91540785 8.96463654,3.67245702 8.96463654,3.37285134 L8.96463654,0.542556516 C8.96463654,0.242950839 8.73452337,0 8.4506365,0 Z M8.373386,3.2265861 L0.623210027,3.2265861 L0.623210027,0.70694864 L8.373386,0.70694864 L8.373386,3.2265861 Z" id="Shape" fill-rule="nonzero"></path>
                <g id="Group-102" transform="translate(0.000000, 5.274924)">
                    <rect id="Rectangle-63" x="0" y="0" width="7.40142096" height="1" rx="0.5"></rect>
                    <rect id="Rectangle-63-Copy" x="7.97690941" y="0" width="1.02309059" height="1" rx="0.5"></rect>
                </g>
            </g>
            <path d="M15.2376419,0 L1.72520395,0 C1.45809111,0 1.24148878,0.205159005 1.24148878,0.458159993 L1.24148878,2.34219079 L0.488716238,2.34219079 C0.2216034,2.34219079 0.00500106812,2.54734979 0.00500106812,2.80035078 C0.00500106812,3.05335177 0.2216034,3.25851078 0.488716238,3.25851078 L1.24148878,3.25851078 L1.24148878,6.50084961 L0.488716238,6.50084961 C0.2216034,6.50084961 0.00500106812,6.70600862 0.00500106812,6.95900961 C0.00500106812,7.21201059 0.2216034,7.4171696 0.488716238,7.4171696 L1.24148878,7.4171696 L1.24148878,11.04184 L0.488716238,11.04184 C0.2216034,11.04184 0.00500106812,11.246999 0.00500106812,11.5 C0.00500106812,11.753001 0.2216034,11.95816 0.488716238,11.95816 L1.24148878,11.95816 L1.24148878,15.5828304 L0.488716238,15.5828304 C0.2216034,15.5828304 0.00500106812,15.7879894 0.00500106812,16.0409904 C0.00500106812,16.2939914 0.2216034,16.4991504 0.488716238,16.4991504 L1.24148878,16.4991504 L1.24148878,19.7414892 L0.488716238,19.7414892 C0.2216034,19.7414892 0.00500106812,19.9466482 0.00500106812,20.1996492 C0.00500106812,20.4526502 0.2216034,20.6578092 0.488716238,20.6578092 L1.24148878,20.6578092 L1.24148878,22.54184 C1.24148878,22.794841 1.45809111,23 1.72520395,23 L15.2376419,23 C16.7635334,23 18.0050011,21.8241653 18.0050011,20.3788433 L18.0050011,2.62115672 C18.0049536,1.17583467 16.7635334,0 15.2376419,0 Z M17.0375233,20.3789331 C17.0375233,21.3189719 16.230114,22.0837249 15.2376419,22.0837249 L2.20891912,22.0837249 L2.20891912,20.6578541 L2.96164424,20.6578541 C3.22875708,20.6578541 3.44535941,20.4526951 3.44535941,20.1996941 C3.44535941,19.9466932 3.22875708,19.7415341 2.96164424,19.7415341 L2.20891912,19.7415341 L2.20891912,16.4991953 L2.96164424,16.4991953 C3.22875708,16.4991953 3.44535941,16.2940363 3.44535941,16.0410353 C3.44535941,15.7880343 3.22875708,15.5828753 2.96164424,15.5828753 L2.20891912,15.5828753 L2.20891912,11.9582049 L2.96164424,11.9582049 C3.22875708,11.9582049 3.44535941,11.7530459 3.44535941,11.5000449 C3.44535941,11.2470439 3.22875708,11.0418849 2.96164424,11.0418849 L2.20891912,11.0418849 L2.20891912,7.41721452 L2.96164424,7.41721452 C3.22875708,7.41721452 3.44535941,7.21205552 3.44535941,6.95905453 C3.44535941,6.70605354 3.22875708,6.50089453 2.96164424,6.50089453 L2.20891912,6.50089453 L2.20891912,3.2585557 L2.96164424,3.2585557 C3.22875708,3.2585557 3.44535941,3.05339669 3.44535941,2.8003957 C3.44535941,2.54739472 3.22875708,2.34223571 2.96164424,2.34223571 L2.20891912,2.34223571 L2.20891912,0.916319986 L15.2375944,0.916319986 C16.2300666,0.916319986 17.0374759,1.68111789 17.0374759,2.6211118 L17.0374759,20.3789331 L17.0375233,20.3789331 Z" id="Shape" stroke-width="0.8" fill-rule="nonzero"></path>
        </g>
    </g>
</svg>