<?xml version="1.0" encoding="UTF-8"?>
<svg width="20px" height="25px" viewBox="0 0 20 25" version="1.1" xmlns="http://www.w3.org/2000/svg" xmlns:xlink="http://www.w3.org/1999/xlink">
    <!-- Generator: Sketch 47.1 (45422) - http://www.bohemiancoding.com/sketch -->
    <title>password-icon</title>
    <desc>Created with Sketch.</desc>
    <defs></defs>
    <g id="Page-1" stroke="none" stroke-width="1" fill="none" fill-rule="evenodd">
        <g id="password-icon" transform="translate(1.000000, 1.000000)" fill-rule="nonzero" fill="#403F45">
            <path d="M7.82516336,15.9220139 L7.50909958,18.6429024 C7.49345844,18.7782499 7.53892578,18.914092 7.63385295,19.0157599 C7.72878011,19.1173829 7.86480637,19.1754789 8.00717364,19.1754789 L10.0112594,19.1754789 C10.1536267,19.1754789 10.289653,19.1173829 10.3845801,19.0157599 C10.4795073,18.9141369 10.5250216,18.7782948 10.5093335,18.6429024 L10.1932697,15.9220139 C10.7065152,15.5646246 11.0132789,14.999268 11.0132789,14.3790978 C11.0132789,13.3210045 10.1145004,12.4605364 9.00919305,12.4605364 C7.90388574,12.4605364 7.00510725,13.3210045 7.00510725,14.3790978 C7.00510725,14.999268 7.31191787,15.5646246 7.82516336,15.9220139 Z M9.00919305,13.4198396 C9.56156489,13.4198396 10.0112125,13.8502985 10.0112125,14.3790978 C10.0112125,14.7467843 9.79298802,15.0760698 9.44169644,15.2390713 C9.25038603,15.3280589 9.13836164,15.5219969 9.16184683,15.723849 L9.45151325,18.2161757 L8.56691982,18.2161757 L8.85658624,15.723849 C8.88007144,15.521952 8.76804705,15.3280589 8.57673664,15.2390713 C8.22544506,15.0760698 8.00722061,14.7467843 8.00722061,14.3790978 C8.00717364,13.8502985 8.45682122,13.4198396 9.00919305,13.4198396 Z" id="Shape"></path>
            <path d="M17.4999844,8.625 L15.9999844,8.625 L15.9999844,6.70831836 C15.9999844,3.00931641 12.859875,0 9,0 C5.140125,0 2.00001563,3.00931641 2.00001563,6.70831836 L2.00001563,8.625 L0.500015625,8.625 C0.223640625,8.625 0,8.83932227 0,9.10418164 L0,21.0833633 C0,22.1404199 0.896953125,23 2.00001563,23 L16.0000312,23 C17.1030469,23 18,22.1404199 18,21.0833184 L18,9.10418164 C18,8.83932227 17.7763594,8.625 17.4999844,8.625 Z M3,6.70831836 C3,3.53759766 5.69142187,0.958318359 9,0.958318359 C12.3085781,0.958318359 15,3.53759766 15,6.70831836 L15,8.625 L14.0000156,8.625 L14.0000156,6.70831836 C14.0000156,4.06632813 11.7568594,1.91663672 9,1.91663672 C6.24314062,1.91663672 3.99998437,4.06637305 3.99998437,6.70831836 L3.99998437,8.625 L3,8.625 L3,6.70831836 Z M12.9999844,6.70831836 L12.9999844,8.625 L5.00001562,8.625 L5.00001562,6.70831836 C5.00001562,4.5946543 6.7944375,2.875 9,2.875 C11.2055625,2.875 12.9999844,4.5946543 12.9999844,6.70831836 Z M17.0000156,21.0833184 C17.0000156,21.6115996 16.5512812,22.0416367 16.0000312,22.0416367 L2.00001562,22.0416367 C1.44876562,22.0416367 1.00003125,21.6115996 1.00003125,21.0833184 L1.00003125,9.58331836 L17.0000156,9.58331836 L17.0000156,21.0833184 L17.0000156,21.0833184 Z" id="Shape" stroke="#403F45" stroke-width="0.5"></path>
        </g>
    </g>
</svg>