<svg xmlns="http://www.w3.org/2000/svg" width="20" height="20" viewBox="0 0 20 20">
    <g fill="none" fill-rule="evenodd">
        <path fill="#FFF" d="M17.917 10c0 4.372-3.545 7.917-7.917 7.917S2.083 14.372 2.083 10 5.628 2.083 10 2.083 17.917 5.628 17.917 10z"/>
        <path fill="#FFF" d="M14.25 10.833c0 2.325-1.884 4.209-4.208 4.209-2.324 0-4.209-1.884-4.209-4.209h8.417z"/>
        <path fill="#009a9a" d="M9.896 1.667c4.544 0 8.228 3.684 8.228 8.228 0 4.545-3.684 8.23-8.228 8.23-4.545 0-8.23-3.685-8.23-8.23 0-4.544 3.685-8.228 8.23-8.228zm0 .833C5.81 2.5 2.5 5.811 2.5 9.895c0 4.085 3.311 7.396 7.396 7.396 4.084 0 7.395-3.311 7.395-7.396 0-4.084-3.311-7.395-7.395-7.395zm4.625 7.931v.417c0 2.554-2.071 4.625-4.625 4.625-2.555 0-4.625-2.07-4.625-4.625v-.417h9.25zm-.856.834H6.127c.207 1.898 1.815 3.375 3.769 3.375 1.892 0 3.46-1.386 3.745-3.198l.024-.177zm.312-5.185v.833h-2V6.08h2zm-6.163 0v.833h-2V6.08h2z"/>
    </g>
</svg>
