<?xml version="1.0" encoding="UTF-8"?>
<svg width="40px" height="40px" viewBox="0 0 40 40" version="1.1" xmlns="http://www.w3.org/2000/svg" xmlns:xlink="http://www.w3.org/1999/xlink">
    <!-- Generator: Sketch 47.1 (45422) - http://www.bohemiancoding.com/sketch -->
    <title>logout_icon_sm_outline</title>
    <desc>Created with Sketch.</desc>
    <defs>
        <circle id="path-1" cx="19.787234" cy="19.787234" r="19.787234"></circle>
    </defs>
    <g id="Page-1" stroke="none" stroke-width="1" fill="none" fill-rule="evenodd">
        <g id="logout_icon_sm_outline">
            <g id="Oval" fill-rule="nonzero">
                <use fill="#009a9a" fill-rule="evenodd" xlink:href="#path-1"></use>
                <circle stroke="#009a9a" stroke-width="2" cx="19.787234" cy="19.787234" r="18.787234"></circle>
            </g>
            <g id="logout_icon" transform="translate(11.000000, 10.000000)" fill="#fff">
                <g id="Group">
                    <path d="M8.67538215,18.8220339 L3.61313959,18.8220339 C2.23739588,18.8220339 1.12114874,17.6694915 1.12114874,16.2584746 L1.12114874,3.70762712 C1.12114874,2.29237288 2.24151487,1.1440678 3.61313959,1.1440678 L8.75776201,1.1440678 C9.0666865,1.1440678 9.31382609,0.889830508 9.31382609,0.572033898 C9.31382609,0.254237288 9.0666865,0 8.75776201,0 L3.61313959,0 C1.6236659,0 0.00902059497,1.66525424 0.00902059497,3.70762712 L0.00902059497,16.2584746 C0.00902059497,18.3050847 1.6277849,19.9661017 3.61313959,19.9661017 L8.67538215,19.9661017 C8.98430664,19.9661017 9.23144622,19.7118644 9.23144622,19.3940678 C9.23144622,19.0762712 8.98018764,18.8220339 8.67538215,18.8220339 Z" id="Shape"></path>
                    <path d="M17.8360229,9.58050847 L14.3019268,5.94491525 C14.0836201,5.72033898 13.7335057,5.72033898 13.5151991,5.94491525 C13.2968924,6.16949153 13.2968924,6.52966102 13.5151991,6.75423729 L16.1019268,9.41525424 L4.82000458,9.41525424 C4.51108009,9.41525424 4.2639405,9.66949153 4.2639405,9.98728814 C4.2639405,10.3050847 4.51108009,10.559322 4.82000458,10.559322 L16.1019268,10.559322 L13.5151991,13.220339 C13.2968924,13.4449153 13.2968924,13.8050847 13.5151991,14.029661 C13.6222929,14.1398305 13.7664577,14.1991525 13.9065034,14.1991525 C14.0465492,14.1991525 14.190714,14.1440678 14.2978078,14.029661 L17.8319039,10.3940678 C18.0543295,10.1652542 18.0543295,9.80084746 17.8360229,9.58050847 Z" id="Shape"></path>
                </g>
            </g>
        </g>
    </g>
</svg>