<?xml version="1.0" encoding="UTF-8"?>
<svg width="40px" height="40px" viewBox="0 0 40 40" version="1.1" xmlns="http://www.w3.org/2000/svg" xmlns:xlink="http://www.w3.org/1999/xlink">
    <!-- Generator: Sketch 47.1 (45422) - http://www.bohemiancoding.com/sketch -->
    <title>orders_icon_sm_outline</title>
    <desc>Created with Sketch.</desc>
    <defs>
        <circle id="path-1" cx="19.787234" cy="19.787234" r="19.787234"></circle>
    </defs>
    <g id="Page-1" stroke="none" stroke-width="1" fill="none" fill-rule="evenodd">
        <g id="orders_icon_sm_outline">
            <g id="Oval" fill-rule="nonzero">
                <use fill="#009a9a" fill-rule="evenodd" xlink:href="#path-1"></use>
                <circle stroke="#009a9a" stroke-width="2" cx="19.787234" cy="19.787234" r="18.787234"></circle>
            </g>
            <g id="order_list" transform="translate(7.000000, 11.000000)" fill="#fff">
                <g id="Group-3">
                    <path d="M8.32271196,3.42345556 C8.32271196,3.81234444 8.68975981,4.12901111 9.14171196,4.12901111 L16.0411665,4.12901111 C16.4931187,4.12901111 16.8588603,3.81567778 16.8588603,3.42345556 C16.8588603,3.03345556 16.4918124,2.7179 16.0411665,2.7179 L9.14171196,2.7179 C8.68975981,2.7179 8.32271196,3.03123333 8.32271196,3.42345556" id="Fill-4"></path>
                    <path d="M25.4661976,1.12067778 C25.4661976,0.730677778 25.0926187,0.415122222 24.6393603,0.415122222 L9.15020239,0.415122222 C8.69302536,0.415122222 8.32336507,0.728455556 8.32336507,1.12067778 C8.32336507,1.50956667 8.69694402,1.82623333 9.15020239,1.82623333 L24.6393603,1.82623333 C25.0965373,1.82623333 25.4661976,1.5129 25.4661976,1.12067778" id="Fill-1"></path>
                    <path d="M6.28902542,0.308845831 C6.00377159,0.0662001234 5.5793415,0.0339125897 5.34124657,0.237421893 L2.31157484,2.81455413 L1.188963,1.85962586 C0.950868066,1.65709497 0.52758819,1.68742568 0.241184143,1.93202821 C-0.0440696865,2.1736955 -0.0820268494,2.53570725 0.157218298,2.73823814 L1.72956501,4.07572476 C1.7491187,4.09724979 1.76062087,4.12073163 1.78362521,4.14127824 C1.80662956,4.16084644 1.83538498,4.16965213 1.85953954,4.18726352 L1.8905954,4.21270218 C1.91590018,4.2342272 1.95040669,4.24303289 1.98031233,4.25966586 C1.99756559,4.26749314 2.01251841,4.27825566 2.02977166,4.28608294 C2.09418382,4.31347842 2.16204663,4.32815457 2.2345103,4.33402503 C2.25981507,4.33696026 2.28281942,4.33989549 2.30697397,4.3408739 C2.33687962,4.33989549 2.36563504,4.33696026 2.39554069,4.33304662 C2.46455371,4.32717616 2.52896587,4.31250001 2.58992737,4.28706135 C2.60948106,4.27923407 2.62673432,4.26651473 2.64628801,4.25673063 C2.67504343,4.24107607 2.70724951,4.23324879 2.73255428,4.21270218 L2.76245993,4.18726352 C2.78661449,4.17063054 2.81536991,4.16084644 2.83837425,4.14127824 C2.86137859,4.12171004 2.87288077,4.09724979 2.89243446,4.07670317 L6.37299126,1.11505576 C6.61223641,0.91252487 6.57657968,0.553448359 6.28902542,0.308845831" id="Fill-6"></path>
                </g>
                <g id="Group-3-Copy" transform="translate(0.000000, 6.000000)">
                    <path d="M8.32271196,3.42345556 C8.32271196,3.81234444 8.68975981,4.12901111 9.14171196,4.12901111 L16.0411665,4.12901111 C16.4931187,4.12901111 16.8588603,3.81567778 16.8588603,3.42345556 C16.8588603,3.03345556 16.4918124,2.7179 16.0411665,2.7179 L9.14171196,2.7179 C8.68975981,2.7179 8.32271196,3.03123333 8.32271196,3.42345556" id="Fill-4"></path>
                    <path d="M25.4661976,1.12067778 C25.4661976,0.730677778 25.0926187,0.415122222 24.6393603,0.415122222 L9.15020239,0.415122222 C8.69302536,0.415122222 8.32336507,0.728455556 8.32336507,1.12067778 C8.32336507,1.50956667 8.69694402,1.82623333 9.15020239,1.82623333 L24.6393603,1.82623333 C25.0965373,1.82623333 25.4661976,1.5129 25.4661976,1.12067778" id="Fill-1"></path>
                    <path d="M6.28902542,0.308845831 C6.00377159,0.0662001234 5.5793415,0.0339125897 5.34124657,0.237421893 L2.31157484,2.81455413 L1.188963,1.85962586 C0.950868066,1.65709497 0.52758819,1.68742568 0.241184143,1.93202821 C-0.0440696865,2.1736955 -0.0820268494,2.53570725 0.157218298,2.73823814 L1.72956501,4.07572476 C1.7491187,4.09724979 1.76062087,4.12073163 1.78362521,4.14127824 C1.80662956,4.16084644 1.83538498,4.16965213 1.85953954,4.18726352 L1.8905954,4.21270218 C1.91590018,4.2342272 1.95040669,4.24303289 1.98031233,4.25966586 C1.99756559,4.26749314 2.01251841,4.27825566 2.02977166,4.28608294 C2.09418382,4.31347842 2.16204663,4.32815457 2.2345103,4.33402503 C2.25981507,4.33696026 2.28281942,4.33989549 2.30697397,4.3408739 C2.33687962,4.33989549 2.36563504,4.33696026 2.39554069,4.33304662 C2.46455371,4.32717616 2.52896587,4.31250001 2.58992737,4.28706135 C2.60948106,4.27923407 2.62673432,4.26651473 2.64628801,4.25673063 C2.67504343,4.24107607 2.70724951,4.23324879 2.73255428,4.21270218 L2.76245993,4.18726352 C2.78661449,4.17063054 2.81536991,4.16084644 2.83837425,4.14127824 C2.86137859,4.12171004 2.87288077,4.09724979 2.89243446,4.07670317 L6.37299126,1.11505576 C6.61223641,0.91252487 6.57657968,0.553448359 6.28902542,0.308845831" id="Fill-6"></path>
                </g>
                <g id="Group-3-Copy-2" transform="translate(0.000000, 14.000000)">
                    <path d="M8.32271196,3.42345556 C8.32271196,3.81234444 8.68975981,4.12901111 9.14171196,4.12901111 L16.0411665,4.12901111 C16.4931187,4.12901111 16.8588603,3.81567778 16.8588603,3.42345556 C16.8588603,3.03345556 16.4918124,2.7179 16.0411665,2.7179 L9.14171196,2.7179 C8.68975981,2.7179 8.32271196,3.03123333 8.32271196,3.42345556" id="Fill-4"></path>
                    <path d="M25.4661976,1.12067778 C25.4661976,0.730677778 25.0926187,0.415122222 24.6393603,0.415122222 L9.15020239,0.415122222 C8.69302536,0.415122222 8.32336507,0.728455556 8.32336507,1.12067778 C8.32336507,1.50956667 8.69694402,1.82623333 9.15020239,1.82623333 L24.6393603,1.82623333 C25.0965373,1.82623333 25.4661976,1.5129 25.4661976,1.12067778" id="Fill-1"></path>
                    <path d="M6.28902542,0.308845831 C6.00377159,0.0662001234 5.5793415,0.0339125897 5.34124657,0.237421893 L2.31157484,2.81455413 L1.188963,1.85962586 C0.950868066,1.65709497 0.52758819,1.68742568 0.241184143,1.93202821 C-0.0440696865,2.1736955 -0.0820268494,2.53570725 0.157218298,2.73823814 L1.72956501,4.07572476 C1.7491187,4.09724979 1.76062087,4.12073163 1.78362521,4.14127824 C1.80662956,4.16084644 1.83538498,4.16965213 1.85953954,4.18726352 L1.8905954,4.21270218 C1.91590018,4.2342272 1.95040669,4.24303289 1.98031233,4.25966586 C1.99756559,4.26749314 2.01251841,4.27825566 2.02977166,4.28608294 C2.09418382,4.31347842 2.16204663,4.32815457 2.2345103,4.33402503 C2.25981507,4.33696026 2.28281942,4.33989549 2.30697397,4.3408739 C2.33687962,4.33989549 2.36563504,4.33696026 2.39554069,4.33304662 C2.46455371,4.32717616 2.52896587,4.31250001 2.58992737,4.28706135 C2.60948106,4.27923407 2.62673432,4.26651473 2.64628801,4.25673063 C2.67504343,4.24107607 2.70724951,4.23324879 2.73255428,4.21270218 L2.76245993,4.18726352 C2.78661449,4.17063054 2.81536991,4.16084644 2.83837425,4.14127824 C2.86137859,4.12171004 2.87288077,4.09724979 2.89243446,4.07670317 L6.37299126,1.11505576 C6.61223641,0.91252487 6.57657968,0.553448359 6.28902542,0.308845831" id="Fill-6"></path>
                </g>
            </g>
        </g>
    </g>
</svg>