<?xml version="1.0" encoding="UTF-8"?>
<svg width="40px" height="40px" viewBox="0 0 40 40" version="1.1" xmlns="http://www.w3.org/2000/svg" xmlns:xlink="http://www.w3.org/1999/xlink">
    <!-- Generator: Sketch 47.1 (45422) - http://www.bohemiancoding.com/sketch -->
    <title>settings_icon_sm_outline</title>
    <desc>Created with Sketch.</desc>
    <defs>
        <circle id="path-1" cx="19.787234" cy="19.787234" r="19.787234"></circle>
    </defs>
    <g id="Page-1" stroke="none" stroke-width="1" fill="none" fill-rule="evenodd">
        <g id="settings_icon_sm_outline">
            <g id="Oval" fill-rule="nonzero">
                <use fill="#009a9a" fill-rule="evenodd" xlink:href="#path-1"></use>
                <circle stroke="#009a9a" stroke-width="2" cx="19.787234" cy="19.787234" r="18.787234"></circle>
            </g>
            <g id="settings_icon" transform="translate(8.000000, 8.000000)" fill="#fff">
                <path d="M11.6588472,5.78705409 C8.43140306,5.78705409 5.80596927,8.41376357 5.80596927,11.6427759 C5.80596927,14.8717882 8.43140306,17.4984976 11.6588472,17.4984976 C14.8862912,17.4984976 17.511725,14.8717882 17.511725,11.6427759 C17.511725,8.41376357 14.8862912,5.78705409 11.6588472,5.78705409 Z M11.6588472,16.661966 C8.89252623,16.661966 6.64209468,14.4104409 6.64209468,11.6427759 C6.64209468,8.87511079 8.89252623,6.62358577 11.6588472,6.62358577 C14.4251681,6.62358577 16.6755996,8.87511079 16.6755996,11.6427759 C16.6755996,14.4104409 14.4251681,16.661966 11.6588472,16.661966 Z" id="Shape"></path>
                <path d="M21.7843259,9.13318081 L20.9406753,9.13318081 C20.7253731,8.33345653 20.4088996,7.56803004 19.9958536,6.85070412 L20.5920111,6.25425703 C20.811494,6.03466746 20.9323141,5.74229964 20.9323141,5.43194639 C20.9323141,5.12117487 20.811494,4.82922531 20.5920111,4.60921748 L18.6885716,2.7048531 C18.2496057,2.26609224 17.4841329,2.2652557 17.0443309,2.7048531 L16.4481735,3.30130019 C15.7307779,2.88847181 14.9661412,2.57184456 14.1672234,2.35643766 L14.1672234,1.51237719 C14.1672234,0.871175655 13.6458992,0.349598151 13.0050091,0.349598151 L10.3126852,0.349598151 C9.67179511,0.349598151 9.15047092,0.871175655 9.15047092,1.51237719 L9.15047092,2.35643766 C8.35155309,2.57184456 7.5869164,2.88847181 6.86910273,3.30171846 L6.27294531,2.70527137 C5.83356141,2.2652557 5.06767053,2.26609224 4.62870469,2.70527137 L2.72526519,4.60963574 C2.50578227,4.82922531 2.38496215,5.12159313 2.38496215,5.43236465 C2.38496215,5.74271791 2.50578227,6.03466746 2.72526519,6.2546753 L3.32142261,6.85112238 C2.90879472,7.56803004 2.59190319,8.33345653 2.37701896,9.13318081 L1.53336842,9.13318081 C0.892478289,9.13318081 0.371154095,9.65475832 0.371154095,10.2959599 L0.371154095,12.9891736 C0.371154095,13.6307934 0.892478289,14.1523709 1.53336842,14.1523709 L2.37701896,14.1523709 C2.59232125,14.9516769 2.90879472,15.7166852 3.32184067,16.4348476 L2.72568325,17.0312947 C2.50620033,17.2508843 2.38538021,17.5432521 2.38538021,17.8536053 C2.38538021,18.1643769 2.50620033,18.4563264 2.72568325,18.6763342 L4.62912275,20.5806986 C5.0680886,21.020296 5.83397947,21.0207143 6.27336338,20.5806986 L6.86952079,19.9842515 C7.58733446,20.3970799 8.35197115,20.7141254 9.15088898,20.9295323 L9.15088898,21.7735928 C9.15088898,22.4147943 9.67221317,22.9363718 10.3131033,22.9363718 L13.0050091,22.9363718 C13.6458992,22.9363718 14.1672234,22.4147943 14.1672234,21.7735928 L14.1672234,20.9295323 C14.9661412,20.7141254 15.7307779,20.3974982 16.4485916,19.9842515 L17.044749,20.5806986 C17.484551,21.0207143 18.2496057,21.0198778 18.6889896,20.5806986 L20.5924291,18.6763342 C20.811912,18.4567447 20.9327322,18.1643769 20.9327322,17.8536053 C20.9327322,17.5432521 20.811912,17.2513025 20.5924291,17.0312947 L19.9962717,16.4348476 C20.4088996,15.7166852 20.7257911,14.9516769 20.9410934,14.1523709 L21.784744,14.1523709 C22.4256341,14.1523709 22.9469583,13.6307934 22.9469583,12.9895919 L22.9469583,10.2959599 C22.9465402,9.65475832 22.425216,9.13318081 21.7843259,9.13318081 Z M22.1104148,12.9895919 C22.1104148,13.1694462 21.9640929,13.3158392 21.7843259,13.3158392 L20.2826446,13.3158392 L20.2073934,13.6391587 C19.9895827,14.5748194 19.6225236,15.4627978 19.1149955,16.2788344 L18.9394092,16.5607456 L20.0008704,17.6227226 C20.1283795,17.7502937 20.1283795,17.9573353 20.0008704,18.0844881 L18.0974309,19.9888525 C17.9703398,20.1160053 17.7633988,20.1168418 17.6358897,19.9888525 L16.5744284,18.9268755 L16.2926542,19.1025471 C15.4774319,19.6103219 14.5898848,19.9779775 13.6542604,20.1954758 L13.331098,20.2707636 L13.331098,21.7731745 C13.331098,21.9530288 13.184776,22.0994219 13.0050091,22.0994219 L10.3126852,22.0994219 C10.1329183,22.0994219 9.98659633,21.9530288 9.98659633,21.7731745 L9.98659633,20.2707636 L9.66343386,20.1954758 C8.72822758,19.9775593 7.84068046,19.6103219 7.02504012,19.1025471 L6.74326586,18.9268755 L5.68180465,19.9888525 C5.55387746,20.1168418 5.34693642,20.1160053 5.22026342,19.9888525 L3.31682392,18.0844881 C3.1893148,17.956917 3.1893148,17.7498754 3.31682392,17.6227226 L4.37828513,16.5607456 L4.20269879,16.2788344 C3.69517067,15.4632161 3.32769355,14.5752377 3.11030094,13.6391587 L3.03504966,13.3158392 L1.53336842,13.3158392 C1.35360145,13.3158392 1.20727951,13.1694462 1.20727951,12.9895919 L1.20727951,10.2959599 C1.20727951,10.1161055 1.35360145,9.9697125 1.53336842,9.9697125 L3.03504966,9.9697125 L3.11030094,9.646393 C3.32811161,8.71031405 3.69517067,7.82233567 4.20269879,7.00671728 L4.37828513,6.7248061 L3.31682392,5.66282913 C3.1893148,5.53525805 3.1893148,5.32821646 3.31682392,5.20106364 L5.22026342,3.29669927 C5.34735448,3.16954645 5.55429552,3.16870992 5.68180465,3.29669927 L6.74326586,4.35867624 L7.02504012,4.18300458 C7.8402624,3.67522985 8.72780952,3.30757418 9.66343386,3.09007594 L9.98659633,3.01478809 L9.98659633,1.51237719 C9.98659633,1.33252288 10.1329183,1.18612983 10.3126852,1.18612983 L13.004591,1.18612983 C13.184776,1.18612983 13.331098,1.33252288 13.331098,1.51237719 L13.331098,3.01478809 L13.6542604,3.09007594 C14.5894667,3.30799245 15.4770138,3.67522985 16.2926542,4.18300458 L16.5744284,4.35867624 L17.6358897,3.29669927 C17.7638168,3.16870992 17.9707579,3.16954645 18.0974309,3.29669927 L20.0008704,5.20106364 C20.1283795,5.32863472 20.1283795,5.53567631 20.0008704,5.66282913 L18.9394092,6.7248061 L19.1149955,7.00671728 C19.6225236,7.8219174 19.9900008,8.70989578 20.2073934,9.646393 L20.2826446,9.9697125 L21.7843259,9.9697125 C21.9640929,9.9697125 22.1104148,10.1161055 22.1104148,10.2959599 L22.1104148,12.9895919 Z" id="Shape"></path>
                <path d="M11.6588472,7.46011745 C9.35364939,7.46011745 7.47822009,9.33645801 7.47822009,11.6427759 C7.47822009,13.9490937 9.35364939,15.8254343 11.6588472,15.8254343 C13.9640449,15.8254343 15.8394742,13.9490937 15.8394742,11.6427759 C15.8394742,9.33645801 13.9640449,7.46011745 11.6588472,7.46011745 Z M11.6588472,14.9889026 C9.81477256,14.9889026 8.31434551,13.4877465 8.31434551,11.6427759 C8.31434551,9.79780523 9.81477256,8.29664913 11.6588472,8.29664913 C13.5029217,8.29664913 15.0033488,9.79780523 15.0033488,11.6427759 C15.0033488,13.4877465 13.5029217,14.9889026 11.6588472,14.9889026 Z" id="Shape"></path>
            </g>
        </g>
    </g>
</svg>