<?xml version="1.0" encoding="UTF-8"?>
<svg width="44px" height="44px" viewBox="0 0 44 44" version="1.1" xmlns="http://www.w3.org/2000/svg" xmlns:xlink="http://www.w3.org/1999/xlink">
    <!-- Generator: Sketch 47.1 (45422) - http://www.bohemiancoding.com/sketch -->
    <title>user_icon_sm_color</title>
    <desc>Created with Sketch.</desc>
    <defs>
        <circle id="path-1" cx="20" cy="20" r="20"></circle>
    </defs>
    <g id="Page-1" stroke="none" stroke-width="1" fill="none" fill-rule="evenodd">
        <g id="user_icon_sm_color" transform="translate(2.000000, 2.000000)" fill-rule="nonzero">
            <g id="Oval">
                <use fill="none" fill-rule="evenodd" xlink:href="#path-1"></use>
                <circle stroke="none" stroke-width="2" cx="20" cy="20" r="21"></circle>
            </g>
            <g id="user2" transform="translate(19.500000, 19.500000) scale(-1, 1) translate(-19.500000, -19.500000) translate(7.000000, 7.000000)" fill="#fff">
                <path d="M16.875,15.4166504 C19.2708252,13.9583009 20.8333009,11.3541748 20.8333009,8.33334957 C20.8333496,3.75 17.0833009,0 12.5,0 C7.91669914,0 4.16665043,3.75 4.16665043,8.33334957 C4.16665043,11.3541748 5.72912608,13.9583496 8.1249513,15.4166504 C3.95830086,16.9791748 0.833300865,20.625 0,25 L2.08334957,25 C3.125,20.2083496 7.39587392,16.6666504 12.5,16.6666504 C17.6041261,16.6666504 21.875,20.2083009 22.9166504,25 L25,25 C24.1666991,20.5208252 21.0416991,16.875 16.875,15.4166504 Z M6,8.5 C6,4.92502533 8.92502533,2 12.5,2 C16.0749747,2 19,4.92502533 19,8.5 C19,12.0749747 16.0749747,15 12.5,15 C8.92502533,15 6,12.0749747 6,8.5 Z" id="Shape"></path>
            </g>
        </g>
    </g>
</svg>