<?xml version="1.0" encoding="utf-8"?>
<!-- Generator: Adobe Illustrator 21.0.0, SVG Export Plug-In . SVG Version: 6.00 Build 0)  -->
<svg version="1.1" id="Layer_1" xmlns="http://www.w3.org/2000/svg" xmlns:xlink="http://www.w3.org/1999/xlink" x="0px" y="0px"
	 viewBox="0 0 189 56" style="enable-background:new 0 0 189 56;" xml:space="preserve">
<style type="text/css">
	.st0{fill:none;}
	.st1{fill:#FFFFFF;}
</style>
<title>Download_on_the_App_Store_Badge_US-UK_135x40</title>
<desc>Created with Sketch.</desc>
<g id="Mockups">
	<g id="_x31__x5F_Carriage---Homepage" transform="translate(-276.000000, -4959.000000)">
		<g id="block:app_download" transform="translate(0.000000, 4524.000000)">
			<g id="block_bg" transform="translate(0.000000, 181.460317)">
				<g id="playstore_appstore_links" transform="translate(60.000000, 253.000000)">
					<g id="Download_on_the_App_Store_Badge_US-UK_135x40" transform="translate(215.377126, 0.000000)">
						<g id="Group">
							<path id="Shape" class="st0" d="M183.7,57.1H6.7c-3.7,0-6.7-3-6.7-6.8V6.7C0,3,3,0,6.7,0h177c3.7,0,6.8,3,6.8,6.7v43.6
								C190.5,54.1,187.4,57.1,183.7,57.1L183.7,57.1z"/>
							<path id="Shape_1_" d="M189.1,50.4c0,3-2.4,5.5-5.4,5.5H6.7c-3,0-5.4-2.4-5.4-5.5V6.7c0-3,2.4-5.5,5.4-5.5h177
								c3,0,5.4,2.5,5.4,5.5L189.1,50.4L189.1,50.4z"/>
							<g id="Shape_2_" transform="translate(17.754043, 8.567999)">
								<path class="st1" d="M24.8,19.7c0-4.6,3.7-6.8,3.9-6.9c-2.1-3.1-5.4-3.6-6.6-3.6c-2.8-0.3-5.5,1.7-6.9,1.7
									c-1.4,0-3.6-1.7-6-1.6c-3,0-5.8,1.8-7.4,4.6C-1.4,19.4,1,27.6,4.1,32.1c1.5,2.2,3.3,4.7,5.7,4.6c2.3-0.1,3.1-1.5,5.9-1.5
									c2.7,0,3.5,1.5,5.9,1.4c2.5,0,4-2.2,5.5-4.5c1.8-2.5,2.5-5,2.5-5.2C29.5,27,24.8,25.2,24.8,19.7z"/>
								<path class="st1" d="M20.2,6.1c1.2-1.6,2.1-3.7,1.8-5.8c-1.8,0.1-4,1.2-5.3,2.8c-1.1,1.3-2.2,3.6-1.9,5.6
									C16.9,8.9,18.9,7.7,20.2,6.1z"/>
							</g>
							<g id="Shape_3_" transform="translate(59.665677, 25.703996)">
								<path class="st1" d="M16,19.3h-3.2l-1.8-5.6H5l-1.7,5.6H0.2l6-19h3.7L16,19.3z M10.5,11.4l-1.6-5C8.8,5.9,8.5,4.7,8,2.8H7.9
									C7.8,3.6,7.5,4.8,7,6.4l-1.6,5H10.5L10.5,11.4z"/>
								<path class="st1" d="M31.6,12.3c0,2.3-0.6,4.2-1.9,5.5c-1.1,1.2-2.5,1.8-4.2,1.8c-1.8,0-3.1-0.6-3.8-1.9h-0.1v7.2h-3V10.1
									c0-1.5,0-3-0.1-4.5h2.6l0.2,2.2h0.1c1-1.6,2.5-2.5,4.6-2.5c1.6,0,2.9,0.6,4,1.9C31,8.5,31.6,10.2,31.6,12.3z M28.5,12.4
									c0-1.3-0.3-2.4-0.9-3.3C27,8.2,26.1,7.7,25,7.7c-0.7,0-1.4,0.3-2,0.7c-0.6,0.5-1,1.2-1.2,2c-0.1,0.4-0.1,0.7-0.1,0.9v2.3
									c0,1,0.3,1.8,0.9,2.5c0.6,0.7,1.4,1,2.4,1c1.1,0,2-0.4,2.6-1.3C28.2,15,28.5,13.8,28.5,12.4z"/>
								<path class="st1" d="M47.1,12.3c0,2.3-0.6,4.2-1.9,5.5c-1.1,1.2-2.5,1.8-4.1,1.8c-1.8,0-3.1-0.6-3.8-1.9h-0.1v7.2h-3V10.1
									c0-1.5,0-3-0.1-4.5h2.6l0.2,2.2H37c1-1.6,2.5-2.5,4.6-2.5c1.6,0,2.9,0.6,4,1.9C46.6,8.5,47.1,10.2,47.1,12.3z M44.1,12.4
									c0-1.3-0.3-2.4-0.9-3.3c-0.7-0.9-1.5-1.4-2.6-1.4c-0.7,0-1.4,0.3-2,0.7c-0.6,0.5-1,1.2-1.2,2c-0.1,0.4-0.1,0.7-0.1,0.9v2.3
									c0,1,0.3,1.8,0.9,2.5c0.6,0.7,1.4,1,2.4,1c1.1,0,2-0.4,2.6-1.3C43.7,15,44.1,13.8,44.1,12.4z"/>
								<path class="st1" d="M64.5,14c0,1.6-0.6,2.9-1.7,3.9c-1.2,1.1-2.9,1.7-5.1,1.7c-2,0-3.6-0.4-4.9-1.2l0.7-2.5
									c1.3,0.8,2.8,1.2,4.3,1.2c1.1,0,2-0.3,2.6-0.8c0.6-0.5,0.9-1.2,0.9-2.1c0-0.8-0.3-1.4-0.8-1.9c-0.5-0.5-1.4-1-2.6-1.5
									c-3.3-1.2-4.9-3.1-4.9-5.4c0-1.6,0.6-2.8,1.7-3.8c1.1-1,2.7-1.5,4.6-1.5c1.7,0,3.1,0.3,4.3,0.9l-0.8,2.5
									c-1.1-0.6-2.3-0.9-3.6-0.9c-1.1,0-1.9,0.3-2.5,0.8c-0.5,0.5-0.8,1-0.8,1.7c0,0.8,0.3,1.4,0.9,1.9c0.5,0.5,1.4,0.9,2.7,1.5
									c1.6,0.7,2.8,1.4,3.6,2.3C64.2,11.5,64.5,12.6,64.5,14z"/>
								<path class="st1" d="M74.5,7.9h-3.3v6.7c0,1.7,0.6,2.5,1.8,2.5c0.5,0,1,0,1.3-0.1l0.1,2.3c-0.6,0.2-1.4,0.3-2.3,0.3
									c-1.2,0-2.1-0.4-2.8-1.1c-0.7-0.7-1-2-1-3.7V7.9h-2V5.6h2V3.1l3-0.9v3.4h3.3V7.9z"/>
								<path class="st1" d="M89.4,12.3c0,2.1-0.6,3.8-1.8,5.2c-1.2,1.4-2.9,2.1-5,2.1c-2,0-3.6-0.7-4.7-2c-1.2-1.3-1.8-3-1.8-5
									c0-2.1,0.6-3.9,1.8-5.2c1.2-1.4,2.9-2,4.9-2c2,0,3.6,0.7,4.8,2C88.9,8.6,89.4,10.3,89.4,12.3z M86.3,12.4
									c0-1.3-0.3-2.3-0.8-3.3c-0.6-1.1-1.5-1.6-2.7-1.6c-1.2,0-2.1,0.5-2.8,1.6c-0.5,0.9-0.8,2-0.8,3.3c0,1.3,0.3,2.3,0.8,3.3
									c0.7,1.1,1.6,1.6,2.7,1.6c1.1,0,2-0.6,2.7-1.7C86,14.8,86.3,13.7,86.3,12.4z"/>
								<path class="st1" d="M99.2,8.3c-0.3-0.1-0.6-0.1-0.9-0.1c-1.1,0-1.9,0.4-2.5,1.2c-0.5,0.7-0.8,1.6-0.8,2.7v7.2h-3l0-9.4
									c0-1.6,0-3-0.1-4.3h2.6l0.1,2.6h0.1c0.3-0.9,0.8-1.6,1.5-2.2c0.7-0.5,1.4-0.7,2.2-0.7c0.3,0,0.5,0,0.8,0.1V8.3z"/>
								<path class="st1" d="M112.7,11.8c0,0.5,0,1-0.1,1.4h-9c0,1.4,0.5,2.4,1.3,3.1c0.8,0.6,1.7,1,3,1c1.3,0,2.6-0.2,3.7-0.6
									l0.5,2.1c-1.3,0.6-2.8,0.8-4.5,0.8c-2.1,0-3.7-0.6-4.9-1.9c-1.2-1.2-1.8-2.9-1.8-5c0-2.1,0.6-3.8,1.7-5.2
									c1.2-1.5,2.7-2.2,4.7-2.2c2,0,3.4,0.7,4.4,2.2C112.3,8.6,112.7,10.1,112.7,11.8z M109.8,11c0-0.9-0.2-1.7-0.6-2.3
									c-0.5-0.8-1.3-1.3-2.4-1.3c-1,0-1.8,0.4-2.4,1.2c-0.5,0.7-0.8,1.4-0.9,2.4L109.8,11L109.8,11z"/>
							</g>
							<g id="Shape_4_" transform="translate(61.488719, 8.984933)">
								<path class="st1" d="M7.7,5.3c0,1.7-0.5,2.9-1.5,3.8C5.3,9.9,4,10.3,2.3,10.3c-0.8,0-1.6,0-2.2-0.1V1
									c0.8-0.1,1.6-0.2,2.5-0.2c1.6,0,2.8,0.4,3.7,1.1C7.2,2.7,7.7,3.8,7.7,5.3z M6.2,5.3c0-1.1-0.3-1.9-0.9-2.5
									C4.7,2.3,3.9,2,2.8,2C2.3,2,1.9,2,1.6,2.1v7c0.2,0,0.5,0,1,0c1.1,0,2-0.3,2.6-1C5.8,7.5,6.2,6.6,6.2,5.3z"/>
								<path class="st1" d="M16,6.8c0,1-0.3,1.9-0.9,2.5c-0.6,0.7-1.4,1-2.4,1c-1,0-1.8-0.3-2.3-1C9.8,8.7,9.5,7.9,9.5,6.9
									c0-1,0.3-1.9,0.9-2.6s1.4-1,2.4-1c1,0,1.8,0.3,2.4,1C15.7,4.9,16,5.8,16,6.8z M14.4,6.8c0-0.6-0.1-1.2-0.4-1.6
									c-0.3-0.5-0.8-0.8-1.3-0.8c-0.6,0-1,0.3-1.4,0.8c-0.3,0.4-0.4,1-0.4,1.6c0,0.6,0.1,1.2,0.4,1.6c0.3,0.5,0.8,0.8,1.3,0.8
									c0.6,0,1-0.3,1.3-0.8C14.3,8,14.4,7.4,14.4,6.8z"/>
								<path class="st1" d="M27.1,3.5L25,10.2h-1.4l-0.9-2.9c-0.2-0.7-0.4-1.5-0.5-2.2h0c-0.1,0.7-0.3,1.5-0.5,2.2l-0.9,2.9h-1.4
									l-2-6.7h1.5l0.8,3.2c0.2,0.8,0.3,1.5,0.5,2.2h0c0.1-0.6,0.3-1.3,0.5-2.1l0.9-3.2h1.2l0.9,3.1c0.2,0.8,0.4,1.5,0.5,2.2h0
									c0.1-0.7,0.3-1.4,0.5-2.2l0.8-3.1L27.1,3.5L27.1,3.5z"/>
								<path class="st1" d="M34.7,10.2h-1.5V6.3c0-1.2-0.4-1.8-1.3-1.8c-0.4,0-0.8,0.2-1.1,0.5c-0.3,0.3-0.4,0.7-0.4,1.2v4h-1.5
									V5.4c0-0.6,0-1.2-0.1-1.9h1.3l0.1,1.1h0c0.2-0.3,0.4-0.6,0.8-0.8c0.4-0.3,0.8-0.4,1.3-0.4c0.6,0,1.1,0.2,1.5,0.6
									c0.5,0.5,0.8,1.2,0.8,2.2V10.2L34.7,10.2z"/>
								<polygon class="st1" points="38.8,10.2 37.3,10.2 37.3,0.4 38.8,0.4 								"/>
								<path class="st1" d="M47.5,6.8c0,1-0.3,1.9-0.9,2.5c-0.6,0.7-1.4,1-2.4,1c-1,0-1.8-0.3-2.3-1C41.3,8.7,41,7.9,41,6.9
									c0-1,0.3-1.9,0.9-2.6c0.6-0.7,1.4-1,2.4-1c1,0,1.8,0.3,2.4,1C47.2,4.9,47.5,5.8,47.5,6.8z M46,6.8c0-0.6-0.1-1.2-0.4-1.6
									c-0.3-0.5-0.8-0.8-1.3-0.8c-0.6,0-1,0.3-1.4,0.8c-0.3,0.4-0.4,1-0.4,1.6c0,0.6,0.1,1.2,0.4,1.6c0.3,0.5,0.8,0.8,1.3,0.8
									c0.6,0,1-0.3,1.3-0.8C45.8,8,46,7.4,46,6.8z"/>
								<path class="st1" d="M54.7,10.2h-1.3l-0.1-0.8h0c-0.5,0.6-1.1,0.9-1.9,0.9c-0.6,0-1.1-0.2-1.5-0.6c-0.3-0.4-0.5-0.8-0.5-1.4
									c0-0.8,0.3-1.4,1-1.9c0.7-0.4,1.6-0.6,2.9-0.6V5.7c0-0.9-0.5-1.3-1.4-1.3c-0.7,0-1.2,0.2-1.7,0.5l-0.3-1
									c0.6-0.4,1.4-0.6,2.3-0.6c1.7,0,2.6,0.9,2.6,2.8v2.5C54.6,9.3,54.6,9.8,54.7,10.2z M53.1,7.9v-1c-1.6,0-2.4,0.4-2.4,1.4
									c0,0.4,0.1,0.6,0.3,0.8c0.2,0.2,0.4,0.3,0.7,0.3c0.3,0,0.6-0.1,0.9-0.3c0.3-0.2,0.4-0.5,0.5-0.8C53.1,8.1,53.1,8,53.1,7.9z"
									/>
								<path class="st1" d="M63.1,10.2h-1.3l-0.1-1.1h0c-0.4,0.8-1.1,1.2-2.1,1.2c-0.8,0-1.5-0.3-2-1c-0.5-0.6-0.8-1.5-0.8-2.5
									c0-1.1,0.3-2,0.9-2.6c0.6-0.6,1.2-0.9,2.1-0.9c0.9,0,1.5,0.3,1.9,0.9h0V0.4H63v8C63,9,63,9.6,63.1,10.2z M61.5,7.4V6.2
									c0-0.2,0-0.4,0-0.5c-0.1-0.4-0.3-0.7-0.5-0.9c-0.3-0.2-0.6-0.4-1-0.4c-0.6,0-1,0.2-1.3,0.7c-0.3,0.4-0.5,1-0.5,1.7
									c0,0.7,0.2,1.2,0.5,1.6c0.3,0.4,0.8,0.7,1.3,0.7c0.5,0,0.9-0.2,1.2-0.6C61.4,8.2,61.5,7.8,61.5,7.4z"/>
								<path class="st1" d="M75.7,6.8c0,1-0.3,1.9-0.9,2.5c-0.6,0.7-1.4,1-2.4,1c-1,0-1.8-0.3-2.3-1c-0.6-0.7-0.9-1.5-0.9-2.5
									c0-1,0.3-1.9,0.9-2.6c0.6-0.7,1.4-1,2.4-1c1,0,1.8,0.3,2.4,1C75.4,4.9,75.7,5.8,75.7,6.8z M74.2,6.8c0-0.6-0.1-1.2-0.4-1.6
									c-0.3-0.5-0.8-0.8-1.3-0.8c-0.6,0-1,0.3-1.4,0.8c-0.3,0.4-0.4,1-0.4,1.6c0,0.6,0.1,1.2,0.4,1.6c0.3,0.5,0.8,0.8,1.3,0.8
									c0.6,0,1-0.3,1.3-0.8C74,8,74.2,7.4,74.2,6.8z"/>
								<path class="st1" d="M83.7,10.2h-1.5V6.3c0-1.2-0.4-1.8-1.3-1.8c-0.4,0-0.8,0.2-1.1,0.5s-0.4,0.7-0.4,1.2v4h-1.5V5.4
									c0-0.6,0-1.2-0.1-1.9h1.3l0.1,1.1h0c0.2-0.3,0.4-0.6,0.8-0.8c0.4-0.3,0.8-0.4,1.3-0.4c0.6,0,1.1,0.2,1.5,0.6
									c0.5,0.5,0.8,1.2,0.8,2.2V10.2L83.7,10.2z"/>
								<path class="st1" d="M93.6,4.6H92v3.3c0,0.8,0.3,1.2,0.9,1.2c0.3,0,0.5,0,0.7-0.1l0,1.1c-0.3,0.1-0.7,0.2-1.1,0.2
									c-0.6,0-1-0.2-1.4-0.5c-0.3-0.4-0.5-1-0.5-1.8V4.6h-1V3.5h1V2.2L92,1.8v1.7h1.6L93.6,4.6L93.6,4.6z"/>
								<path class="st1" d="M101.4,10.2H100V6.4c0-1.2-0.4-1.8-1.3-1.8c-0.7,0-1.2,0.3-1.4,1c0,0.1-0.1,0.3-0.1,0.5v4h-1.5V0.4h1.5
									v4.1h0c0.5-0.7,1.1-1.1,2-1.1c0.6,0,1.1,0.2,1.5,0.6c0.5,0.5,0.8,1.3,0.8,2.3V10.2L101.4,10.2z"/>
								<path class="st1" d="M109.5,6.5c0,0.3,0,0.5-0.1,0.7H105c0,0.7,0.2,1.2,0.6,1.5c0.4,0.3,0.9,0.5,1.5,0.5
									c0.7,0,1.3-0.1,1.8-0.3l0.2,1c-0.6,0.3-1.4,0.4-2.2,0.4c-1,0-1.8-0.3-2.4-0.9c-0.6-0.6-0.9-1.4-0.9-2.5c0-1,0.3-1.9,0.8-2.5
									c0.6-0.7,1.3-1.1,2.3-1.1c1,0,1.7,0.4,2.2,1.1C109.3,5,109.5,5.7,109.5,6.5z M108.1,6.1c0-0.4-0.1-0.8-0.3-1.1
									c-0.3-0.4-0.6-0.6-1.2-0.6c-0.5,0-0.9,0.2-1.2,0.6c-0.2,0.3-0.4,0.7-0.4,1.2H108.1z"/>
							</g>
						</g>
					</g>
				</g>
			</g>
		</g>
	</g>
</g>
</svg>
